# Made in Blockbench 4.7.4
mtllib torch_side.mtl

o cube
v 0.0625 0.2957531754730548 0.2622595264191645
v 0.0625 0.2332531754730548 0.1540063509461097
v 0.0625 -0.2455127018922194 0.5747595264191645
v 0.0625 -0.30801270189221935 0.4665063509461096
v -0.0625 0.2332531754730548 0.1540063509461097
v -0.0625 0.2957531754730548 0.2622595264191645
v -0.0625 -0.30801270189221935 0.4665063509461096
v -0.0625 -0.2455127018922194 0.5747595264191645
vt 0.4375 0.625
vt 0.5625 0.625
vt 0.5625 0
vt 0.4375 0
vt 0.4375 0.625
vt 0.5625 0.625
vt 0.5625 0
vt 0.4375 0
vt 0.4375 0.625
vt 0.5625 0.625
vt 0.5625 0
vt 0.4375 0
vt 0.4375 0.625
vt 0.5625 0.625
vt 0.5625 0
vt 0.4375 0
vt 0.4375 0.625
vt 0.5625 0.625
vt 0.5625 0.5
vt 0.4375 0.5
vt 0.4375 0.125
vt 0.5625 0.125
vt 0.5625 0
vt 0.4375 0
vn 0 -0.49999999999999994 -0.8660254037844387
vn 1 0 0
vn 0 0.49999999999999994 0.8660254037844387
vn -1 0 0
vn 0 0.8660254037844387 -0.49999999999999994
vn 0 -0.8660254037844387 0.49999999999999994
usemtl none
f 4/4/1 7/3/1 5/2/1 2/1/1
f 3/8/2 4/7/2 2/6/2 1/5/2
f 8/12/3 3/11/3 1/10/3 6/9/3
f 7/16/4 8/15/4 6/14/4 5/13/4
f 6/20/5 1/19/5 2/18/5 5/17/5
f 7/24/6 4/23/6 3/22/6 8/21/6